<svg width="226" height="120" viewBox="0 0 226 120" fill="none" xmlns="http://www.w3.org/2000/svg">
<path d="M42.3041 29.0046C22.9196 29.0046 14.5525 46.1342 14.5525 46.1342L17.0154 47.8846C17.0154 47.8846 13.916 53.7361 14.0017 61.2414C14.0017 76.5626 26.2867 90.9953 44.3711 90.9953C60.8001 90.9953 74.3715 77.7198 74.3715 61.2791C74.3715 39.8366 57.6225 29.0046 42.3042 29.0046H42.3041ZM42.4723 34.2316C57.6174 34.2316 69.3696 46.3479 69.3696 60.4335C69.3696 75.3653 58.0575 85.7495 44.8756 85.7495C35.174 85.7495 26.4223 78.415 26.4223 68.3587C26.4223 62.5505 29.5319 58.5012 33.0165 56.343L33.5264 56.8924C32.5729 57.6331 29.8537 61.9694 29.8537 66.2314C29.8537 74.1435 36.1035 79.6231 43.9778 79.6231C54.0082 79.6231 60.6977 71.1299 60.6977 61.2684C60.6977 49.7946 50.496 40.0536 38.2191 40.0536C31.4286 40.0536 25.6653 42.9528 22.3536 45.5122L21.8382 45.049C26.1708 38.417 33.6738 34.2316 42.4723 34.2316ZM37.9532 45.2079C45.7878 45.2079 53.4367 50.3534 55.3459 57.6571L54.6515 57.9183C51.2234 53.4242 45.6063 49.6997 38.9731 49.6997C26.7675 49.6997 20.3574 60.7107 21.2984 69.9071L20.5796 70.1684C20.5796 70.1684 19.2315 67.2153 19.2315 63.7135C19.2315 53.5729 27.6198 45.2079 37.9532 45.2079ZM43.1314 57.9344C46.8406 57.9344 49.807 60.9191 49.807 64.4622C49.807 67.3941 47.9109 69.1317 47.9109 69.1317L50.1568 70.6908C50.1568 70.6908 47.9297 74.162 43.3837 74.162C39.0351 74.162 35.1892 70.6775 35.1892 65.9917C35.1892 61.1634 39.3725 57.9344 43.1314 57.9344Z" fill="#5D5D5D"/>
<path d="M85.2432 48.6477V62.7249C85.2432 68.4408 89.1593 72.0841 94.8629 72.0841C100.862 72.0841 104.534 68.2421 104.534 62.3394V48.6477H99.4566V62.0822C99.4566 65.3008 97.8275 67.2967 94.917 67.2967C91.7273 67.2967 90.3212 65.0014 90.3212 62.3394V48.6477H85.2432ZM107.003 48.8422V71.8545H115.091C119.571 71.8545 123.377 69.5813 123.377 65.0729C123.377 60.3669 119.238 59.3238 119.238 59.3238C119.238 59.3238 122.303 58.4768 122.303 54.4506C122.303 50.4271 118.429 48.8422 115.091 48.8422H107.003ZM112.119 53.2131H114.574C116.278 53.2131 117.368 54.1061 117.368 55.6598C117.368 57.0496 116.444 58.0984 114.704 58.0984H112.119L112.119 53.2131ZM112.119 61.6982H114.833C117.384 61.6982 118.269 63.0023 118.269 64.5586C118.269 66.3695 117.125 67.4312 115.091 67.4312H112.119V61.6983L112.119 61.6982ZM125.299 48.8405H130.403V71.8528H125.299V48.8405ZM180.989 71.8528H175.885V48.8405H191.908V53.5973H180.989V58.8683H190.939V62.7249H180.989V71.8528ZM193.781 48.8405V53.5973H200.371V71.8528H205.54V53.5973H212V48.8405H193.781ZM136.229 64.201L132.175 67.1505C132.175 67.1505 133.576 72.2488 140.6 72.2488C145.277 72.2488 148.719 69.533 148.719 64.7585C148.719 57.0639 137.905 58.6962 137.905 54.7392C137.905 53.6978 138.836 52.7779 140.554 52.7779C143.31 52.7779 144.358 55.468 144.358 55.468L148.413 52.636C148.413 52.636 146.829 48.4347 140.758 48.4347C135.768 48.4347 133.117 51.6198 133.117 54.9064C133.117 62.7478 143.616 61.0458 143.616 65.161C143.616 66.5497 142.516 67.5701 140.803 67.5584C137.409 67.5584 136.229 64.201 136.229 64.201ZM161.898 48.4241C155.888 48.4241 153.209 51.6702 153.209 51.6702L153.984 52.4416C153.984 52.4416 150.095 55.1897 150.095 61.0912C150.095 67.882 155.359 72.2438 161.926 72.2438C169.557 72.2438 173.887 66.6419 173.887 60.344C173.887 53.6282 168.944 48.4241 161.898 48.4241ZM162.007 53.2009C166.082 53.2009 168.726 56.3 168.726 60.3239C168.726 64.3061 166.114 67.4912 162.007 67.4912C157.95 67.4912 155.284 64.6722 155.284 60.9305C155.284 57.5252 157.602 56.0412 157.602 56.0412L156.762 55.2055C156.762 55.2055 158.549 53.2009 162.007 53.2009Z" fill="#5D5D5D"/>
</svg>
